<svg width="32" height="32" viewBox="0 0 32 32" fill="none" xmlns="http://www.w3.org/2000/svg">
  <rect width="32" height="32" rx="8" fill="#ffffff"/>
  <path d="M8.50842 24H5.05843V8.11823H7.53092C8.26777 8.11823 8.80297 8.2434 9.13167 8.49373C9.46128 8.73502 9.65108 9.12812 9.65108 9.67304V10.11786C9.65108 10.63958 9.56073 11.04871 9.38002 11.34527C9.20022 11.64418 8.93916 11.84986 8.60684 11.92158C8.94448 12.02871 9.1964 12.26249 9.32259 12.629C9.45967 12.99241 9.52822 13.44408 9.52822 13.97791C9.52822 14.7226 9.46375 15.3584 9.3348 15.8663C9.20585 16.3742 8.99338 16.7643 8.7074 17.0366C8.42141 17.2988 8.03307 17.43 7.53092 17.43H8.50842V24Z" fill="#000000"/>
  <path d="M22 16C22.3978 16 22.7794 16.1173 23.1046 16.3371C23.4409 16.5568 23.7016 16.86 23.8868 17.2465C24.0719 17.6217 24.1645 18.0465 24.1645 18.5208C24.1645 18.9837 24.0719 19.402 23.8868 19.7772C23.7016 20.1525 23.4409 20.4558 23.1046 20.6867C22.7794 20.9066 22.3978 21.0165 22 21.0165C21.6022 21.0165 21.2206 20.9066 20.8954 20.6867C20.5591 20.4558 20.2984 20.1525 20.1132 19.7772C19.9281 19.402 19.8355 18.9837 19.8355 18.5208C19.8355 18.0465 19.9281 17.6217 20.1132 17.2465C20.2984 16.86 20.5591 16.5568 20.8954 16.3371C21.2206 16.1173 21.6022 16 22 16Z" fill="#000000"/>
</svg>
